# xmcd CD database file
#
# Track frame offsets:
#	150
#	19840
#	35200
#	47590
#	61420
#	79227
#	92855
#	108890
#	129967
#	156100
#	173082
#	186870
#	204882
#	216615
#
# Disc length: 3102 seconds
#
# Revision: 0
# Processed by: cddbd v1.5PL3 Copyright (c) Steve Scherf et al.
# Submitted via: CDex 1.51
#
DISCID=bf0c1c0e
DTITLE=PROFESSOR JOHN - Big Hands
DYEAR=2002
DGENRE=Blues
TTITLE0=Down on the Farm
TTITLE1=So Hard to be Me
TTITLE2=I Ain't That Kind of Man
TTITLE3=Big Big Man
TTITLE4=Makin' a Woman Smile
TTITLE5=Rosemary in July
TTITLE6=Cry Cry Cry
TTITLE7=Sweet Georgia Brown
TTITLE8=I Wanna Go Home
TTITLE9=Every Day and Every Night
TTITLE10=I Like It Like That
TTITLE11=Thinkin' Of You
TTITLE12=Not Enough Sin
TTITLE13=Cabbage Greens
EXTD=YEAR: 2002
EXTT0=
EXTT1=
EXTT2=
EXTT3=
EXTT4=
EXTT5=
EXTT6=
EXTT7=
EXTT8=
EXTT9=
EXTT10=
EXTT11=
EXTT12=
EXTT13=
PLAYORDER=
